<svg width="47" height="47" viewBox="0 0 47 47" fill="none" xmlns="http://www.w3.org/2000/svg">
<g clip-path="url(#clip0_2881_5824)">
<path d="M23.1367 42.5391C20.5065 42.5391 18.0326 42.0378 15.7148 41.0352C13.4102 40.0456 11.3789 38.6719 9.62109 36.9141C7.86328 35.1562 6.48307 33.125 5.48047 30.8203C4.49089 28.5026 3.99609 26.0286 3.99609 23.3984C3.99609 20.7682 4.49089 18.3008 5.48047 15.9961C6.48307 13.6784 7.86328 11.6406 9.62109 9.88281C11.3789 8.125 13.4102 6.7513 15.7148 5.76172C18.0326 4.75911 20.5065 4.25781 23.1367 4.25781C25.7669 4.25781 28.2344 4.75911 30.5391 5.76172C32.8568 6.7513 34.8945 8.125 36.6523 9.88281C38.4102 11.6406 39.7904 13.6784 40.793 15.9961C41.7956 18.3008 42.2969 20.7682 42.2969 23.3984C42.2969 26.0286 41.7956 28.5026 40.793 30.8203C39.7904 33.125 38.4102 35.1562 36.6523 36.9141C34.8945 38.6719 32.8633 40.0456 30.5586 41.0352C28.2539 42.0378 25.7799 42.5391 23.1367 42.5391ZM23.1367 41.0547C25.5846 41.0547 27.8763 40.599 30.0117 39.6875C32.1471 38.776 34.0221 37.513 35.6367 35.8984C37.2643 34.2708 38.5339 32.3893 39.4453 30.2539C40.3568 28.1185 40.8125 25.8333 40.8125 23.3984C40.8125 20.9635 40.3568 18.6784 39.4453 16.543C38.5339 14.4076 37.2643 12.526 35.6367 10.8984C34.0221 9.27083 32.1471 8.0013 30.0117 7.08984C27.8763 6.17839 25.5846 5.72266 23.1367 5.72266C20.7018 5.72266 18.4167 6.17839 16.2812 7.08984C14.1458 8.0013 12.2643 9.27083 10.6367 10.8984C9.02214 12.526 7.75911 14.4076 6.84766 16.543C5.9362 18.6784 5.48047 20.9635 5.48047 23.3984C5.48047 25.8333 5.9362 28.1185 6.84766 30.2539C7.75911 32.3893 9.02214 34.2708 10.6367 35.8984C12.2643 37.513 14.1458 38.776 16.2812 39.6875C18.4167 40.599 20.7018 41.0547 23.1367 41.0547ZM29.7773 27.9688C29.569 27.9688 29.3997 27.9036 29.2695 27.7734C29.1523 27.6302 29.0938 27.4479 29.0938 27.2266V21.7188L29.1328 18.2617L27.1406 20.3711L17.043 30.4688C16.8997 30.612 16.7109 30.6836 16.4766 30.6836C16.2812 30.6836 16.1185 30.625 15.9883 30.5078C15.8581 30.3776 15.793 30.2083 15.793 30C15.793 29.8047 15.8711 29.6289 16.0273 29.4727L26.1445 19.3555L28.2539 17.3242L25.5195 17.3828H19.25C19.0286 17.3828 18.8529 17.3242 18.7227 17.207C18.5924 17.0768 18.5273 16.9076 18.5273 16.6992C18.5273 16.5039 18.5924 16.3477 18.7227 16.2305C18.8529 16.1133 19.0352 16.0547 19.2695 16.0547H29.7383C29.9466 16.0547 30.1159 16.1198 30.2461 16.25C30.3763 16.3672 30.4414 16.543 30.4414 16.7773V27.2266C30.4414 27.4479 30.3763 27.6302 30.2461 27.7734C30.1289 27.9036 29.9727 27.9688 29.7773 27.9688Z" fill="white"/>
</g>
<defs>
<clipPath id="clip0_2881_5824">
<rect width="47" height="47" rx="23.5" fill="white"/>
</clipPath>
</defs>
</svg>
